<svg viewBox="0 0 77 18" xmlns="http://www.w3.org/2000/svg">
<path d="M38.2607 4.51513C35.2929 4.51513 33.1531 6.45061 33.1531 9.35384C33.1531 12.2571 35.5617 14.1925 38.5295 14.1925C40.3225 14.1925 41.9031 13.4829 42.8816 12.2866L40.8252 11.0985C40.2822 11.6925 39.4569 12.0393 38.5295 12.0393C37.2418 12.0393 36.1478 11.3673 35.7418 10.292H43.2741C43.3332 9.99093 43.3682 9.6791 43.3682 9.35115C43.3682 6.45061 41.2284 4.51513 38.2607 4.51513ZM35.7177 8.41298C36.0537 7.34039 36.973 6.66566 38.258 6.66566C39.5456 6.66566 40.465 7.34039 40.7983 8.41298H35.7177ZM67.2069 4.51513C64.2392 4.51513 62.0994 6.45061 62.0994 9.35384C62.0994 12.2571 64.508 14.1925 67.4757 14.1925C69.2687 14.1925 70.8494 13.4829 71.8279 12.2866L69.7714 11.0985C69.2284 11.6925 68.4031 12.0393 67.4757 12.0393C66.1881 12.0393 65.094 11.3673 64.6881 10.292H72.2203C72.2795 9.99093 72.3144 9.6791 72.3144 9.35115C72.3144 6.45061 70.1746 4.51513 67.2069 4.51513ZM64.6666 8.41298C65.0026 7.34039 65.922 6.66566 67.2069 6.66566C68.4945 6.66566 69.4139 7.34039 69.7472 8.41298H64.6666ZM54.1746 9.35384C54.1746 10.9667 55.2284 12.042 56.8628 12.042C57.9703 12.042 58.801 11.5393 59.2284 10.7194L61.2929 11.9103C60.4381 13.335 58.8359 14.1925 56.8628 14.1925C53.8924 14.1925 51.7553 12.2571 51.7553 9.35384C51.7553 6.45061 53.8951 4.51513 56.8628 4.51513C58.8359 4.51513 60.4354 5.37265 61.2929 6.79738L59.2284 7.98824C58.801 7.16835 57.9703 6.66566 56.8628 6.66566C55.2311 6.66566 54.1746 7.74093 54.1746 9.35384ZM76.3467 1.55814V13.9237H73.9273V1.55814H76.3467ZM10.2795 0.21405L20.2123 17.4184H0.34668L10.2795 0.21405ZM35.1128 1.55814L27.6639 14.4614L20.215 1.55814H23.008L27.6639 9.62265L32.3198 1.55814H35.1128ZM50.9488 4.78394V7.38878C50.68 7.31082 50.3951 7.25706 50.0886 7.25706C48.5268 7.25706 47.4004 8.33233 47.4004 9.94523V13.9237H44.9811V4.78394H47.4004V7.25706C47.4004 5.89147 48.9892 4.78394 50.9488 4.78394Z" fill="#758091"/>
</svg>
