<svg viewBox="0 0 78 24" xmlns="http://www.w3.org/2000/svg">
<g clip-path="url(#clip0_2_2929)">
<path d="M54.5968 4.82416H50.5204C50.4277 4.82416 50.3351 4.91617 50.3351 5.00817V7.35416C50.3351 7.44616 50.4277 7.53817 50.5204 7.53817H54.5968C54.6895 7.53817 54.7821 7.44616 54.7821 7.35416V5.00817C54.8284 4.91617 54.7358 4.82416 54.5968 4.82416ZM54.5505 8.32016H46.6756C46.5829 8.32016 46.4439 8.41216 46.3976 8.50416L45.3785 12.3222L45.3322 12.5062L44.1278 8.41216C44.0815 8.32016 43.9888 8.22817 43.8498 8.22817H40.7925C40.6999 8.22817 40.5609 8.32016 40.5146 8.41216L39.3565 12.2302L39.3102 12.4142L39.2638 12.3222L38.8006 10.4362L38.2911 8.55016C38.2447 8.45816 38.1521 8.36616 38.0131 8.36616H31.8521V5.05416C31.8521 4.96216 31.7132 4.82416 31.5742 4.87016L27.683 6.06616C27.5441 6.11216 27.4978 6.15816 27.4978 6.25016V8.32016H26.4786C26.386 8.32016 26.2933 8.41216 26.2933 8.50416V11.4482C26.2933 11.5402 26.386 11.6322 26.4786 11.6322H27.4978V15.2202C27.4978 17.7502 28.8875 18.9462 31.4352 18.9462C32.5007 18.9462 33.5198 18.7162 34.2146 18.3482V15.3122C34.2146 15.1742 34.0756 15.1282 33.983 15.1282C33.5661 15.3122 33.2418 15.3582 32.8712 15.3582C32.1764 15.3582 31.8058 15.0822 31.8058 14.3002V11.6782H34.0293C34.122 11.6782 34.2146 11.5862 34.2146 11.4942V9.01016L37.133 18.6242C37.1793 18.7162 37.2719 18.8082 37.4109 18.8082H40.6535C40.7462 18.8082 40.8852 18.7162 40.9315 18.6242L42.3212 14.3462L43.016 16.5542L43.6646 18.5782C43.7109 18.6702 43.8035 18.7622 43.9425 18.7622H47.1851C47.2778 18.7622 47.4167 18.6702 47.4631 18.5782L50.4277 8.91817V18.5782C50.4277 18.6702 50.5204 18.7622 50.613 18.7622H54.5505C54.6431 18.7622 54.7358 18.6702 54.7358 18.5782V8.55016C54.7358 8.41216 54.6431 8.32016 54.5505 8.32016ZM59.7387 4.82416H55.8012C55.7086 4.82416 55.6159 4.91617 55.6159 5.00817V18.5782C55.6159 18.6702 55.7086 18.7622 55.8012 18.7622H59.7387C59.8313 18.7622 59.924 18.6702 59.924 18.5782V5.00817C59.924 4.91617 59.8313 4.82416 59.7387 4.82416ZM64.9732 4.82416H60.8968C60.8041 4.82416 60.7115 4.91617 60.7115 5.00817V7.35416C60.7115 7.44616 60.8041 7.53817 60.8968 7.53817H64.9732C65.0659 7.53817 65.1585 7.44616 65.1585 7.35416V5.00817C65.2048 4.91617 65.1122 4.82416 64.9732 4.82416ZM64.9269 8.32016H60.9894C60.8968 8.32016 60.8041 8.41216 60.8041 8.50416V18.5782C60.8041 18.6702 60.8968 18.7622 60.9894 18.7622H64.9269C65.0195 18.7622 65.1122 18.6702 65.1122 18.5782V8.55016C65.1122 8.41216 65.0195 8.32016 64.9269 8.32016ZM71.4585 8.09016C67.9842 8.09016 65.5291 10.6202 65.5291 13.5642V13.6102C65.5291 16.5542 67.9842 19.0382 71.4121 19.0382C74.8864 19.0382 77.3415 16.5082 77.3415 13.5642V13.5182C77.3415 10.5742 74.8864 8.09016 71.4585 8.09016ZM73.1261 13.5642C73.1261 14.5762 72.4313 15.3582 71.4585 15.3582C70.4857 15.3582 69.7445 14.5302 69.7445 13.5182V13.4722C69.7445 12.4602 70.4394 11.6782 71.4121 11.6782C72.3849 11.6782 73.1261 12.5062 73.1261 13.5642ZM11.9332 0.316162C5.54055 0.316162 0.352356 5.46816 0.352356 11.8162C0.352356 18.1642 5.54055 23.3162 11.9332 23.3162C18.3258 23.3162 23.514 18.1642 23.514 11.8162C23.514 5.46816 18.3258 0.316162 11.9332 0.316162ZM11.9332 20.2802C7.20819 20.2802 3.40969 16.5082 3.40969 11.8162C3.40969 7.12416 7.20819 3.35216 11.9332 3.35216C16.6581 3.35216 20.4566 7.12416 20.4566 11.8162C20.4566 16.5082 16.6581 20.2802 11.9332 20.2802Z" fill="#758091"/>
<path d="M14.8049 11.3561C16.1352 11.3561 17.2137 10.2852 17.2137 8.96414C17.2137 7.64307 16.1352 6.57214 14.8049 6.57214C13.4745 6.57214 12.3961 7.64307 12.3961 8.96414C12.3961 10.2852 13.4745 11.3561 14.8049 11.3561Z" fill="#758091"/>
<path d="M14.8049 17.0601C16.1352 17.0601 17.2137 15.9892 17.2137 14.6681C17.2137 13.3471 16.1352 12.2761 14.8049 12.2761C13.4745 12.2761 12.3961 13.3471 12.3961 14.6681C12.3961 15.9892 13.4745 17.0601 14.8049 17.0601Z" fill="#758091"/>
<path d="M9.06081 17.0601C10.3912 17.0601 11.4696 15.9892 11.4696 14.6681C11.4696 13.3471 10.3912 12.2761 9.06081 12.2761C7.73046 12.2761 6.65201 13.3471 6.65201 14.6681C6.65201 15.9892 7.73046 17.0601 9.06081 17.0601Z" fill="#758091"/>
<path d="M9.06081 11.3561C10.3912 11.3561 11.4696 10.2852 11.4696 8.96414C11.4696 7.64307 10.3912 6.57214 9.06081 6.57214C7.73046 6.57214 6.65201 7.64307 6.65201 8.96414C6.65201 10.2852 7.73046 11.3561 9.06081 11.3561Z" fill="#758091"/>
</g>
<defs>
<clipPath id="clip0_2_2929">
<rect width="77" height="23" fill="white" transform="translate(0.34668 0.316162)"/>
</clipPath>
</defs>
</svg>
