<svg viewBox="0 0 81 13" xmlns="http://www.w3.org/2000/svg">
<path d="M12.3524 6.88102C12.3524 10.2069 9.67542 12.9163 6.34952 12.9163C3.02362 12.9163 0.34668 10.2069 0.34668 6.88102C0.34668 3.55512 3.02362 0.845734 6.34952 0.845734C9.67542 0.845734 12.3524 3.55512 12.3524 6.88102ZM18.9393 6.88102C18.9393 10.0122 17.5927 12.5594 15.9378 12.5594C14.283 12.5594 12.9364 10.0122 12.9364 6.88102C12.9364 3.74981 14.283 1.20266 15.9378 1.20266C17.5927 1.20266 18.9393 3.74981 18.9393 6.88102ZM21.6324 6.88102C21.6324 9.68775 21.1619 11.9753 20.5779 11.9753C19.9938 11.9753 19.5233 9.68775 19.5233 6.88102C19.5233 4.07429 19.9938 1.78672 20.5779 1.78672C21.1619 1.78672 21.6324 4.07429 21.6324 6.88102ZM38.1646 1.3649H38.1808V1.23511H34.7738L31.6101 8.68187L28.4465 1.23511H24.7799V1.3649H24.7961C25.4126 1.51091 25.7371 1.72182 25.7371 2.46812V11.3101C25.7371 12.0727 25.4126 12.2674 24.7961 12.4134H24.7799V12.5432H27.2783V12.4134H27.2621C26.6456 12.2674 26.3211 12.0564 26.3211 11.3101V2.97106L30.3933 12.5432H30.6205L34.8062 2.71148V11.5211C34.7575 12.1213 34.4331 12.2998 33.8815 12.4296H33.8652V12.5594H38.2132V12.4296H38.197C37.6292 12.2998 37.3047 12.1213 37.256 11.5211V2.4519C37.2398 1.72183 37.5481 1.51091 38.1646 1.3649ZM40.1601 7.22172C40.225 5.63178 40.8091 4.47989 41.7663 4.46366C42.0583 4.46366 42.3017 4.56101 42.4963 4.75569C42.9019 5.14507 43.0966 5.98871 43.0642 7.22172H40.1601ZM40.1114 7.67599H45.2057V7.65977C45.1895 6.44298 44.8326 5.50199 44.1674 4.85303C43.5833 4.2852 42.7073 3.97695 41.7987 3.97695H41.7825C41.312 3.97695 40.7279 4.09051 40.3223 4.30142C39.8518 4.51233 39.43 4.85304 39.0893 5.27486C38.5377 5.95626 38.197 6.89724 38.1159 7.93557C38.1159 7.96802 38.1159 8.00047 38.1159 8.03292C38.1159 8.06537 38.1159 8.09781 38.1159 8.13026C38.1159 8.27628 38.0997 8.42229 38.1159 8.56831C38.1646 10.937 39.4463 12.8352 41.7176 12.8352C43.7131 12.8352 44.8813 11.375 45.1571 9.41195L45.0111 9.36328C44.5081 10.4178 43.5833 11.0506 42.545 10.9694C41.1011 10.8559 40.0141 9.41195 40.1114 7.67599ZM50.949 10.8883C50.7868 11.2777 50.4298 11.5048 49.9593 11.5048C49.4888 11.5048 49.067 11.1804 48.7588 10.5963C48.4343 9.96356 48.2558 9.08747 48.2558 8.04914C48.2558 5.87514 48.9372 4.46366 49.9756 4.46366C50.4136 4.46366 50.7543 4.67457 50.9328 5.06395V10.8883H50.949ZM54.3398 12.4458C53.7233 12.2998 53.3988 12.0727 53.3988 11.2777V0.715942L49.6186 1.83539V1.96518H49.6349C50.154 1.91651 50.5109 1.99763 50.7219 2.19232C50.8841 2.33833 50.9652 2.56547 50.9652 2.88995V4.33387C50.5921 4.09051 50.154 3.97695 49.6186 3.97695C48.5316 3.97695 47.5257 4.43121 46.8119 5.27486C46.0656 6.15095 45.66 7.33529 45.66 8.71432C45.66 11.1804 46.8768 12.8352 48.6776 12.8352C49.7322 12.8352 50.5758 12.2511 50.9652 11.2777V12.5918H54.356V12.462L54.3398 12.4458ZM57.5683 2.14365C57.5683 1.38112 56.9843 0.797062 56.2218 0.797062C55.4592 0.797062 54.8589 1.39735 54.8589 2.14365C54.8589 2.90617 55.4592 3.49023 56.2218 3.49023C57.0005 3.50645 57.5683 2.92239 57.5683 2.14365ZM58.4607 12.4458C57.8441 12.2998 57.5197 12.0727 57.5197 11.2777V3.99317L54.1289 4.9666V5.09639H54.1451C54.8752 5.16129 55.0861 5.42087 55.0861 6.26451V12.5594H58.4769V12.4296L58.4607 12.4458ZM67.1567 12.4458C66.5402 12.2998 66.2157 12.0727 66.2157 11.2777V3.99317L62.9871 4.93415V5.06395H63.0033C63.6036 5.12884 63.7821 5.38842 63.7821 6.24829V10.8721C63.5874 11.2615 63.2143 11.5048 62.7438 11.5211C62.0137 11.5211 61.6081 11.0181 61.6081 10.1258V4.00939L58.2173 4.98283V5.11262H58.2335C58.9636 5.17751 59.1745 5.43709 59.1745 6.28074V10.1745C59.1745 10.4503 59.1907 10.7099 59.2394 10.9857L59.3043 11.2452C59.5963 12.2674 60.3426 12.819 61.527 12.819C62.5328 12.819 63.4089 12.2025 63.7821 11.229V12.5756H67.1729L67.1567 12.4458ZM80.3467 12.5756V12.4458H80.3305C79.6491 12.2836 79.3895 11.9915 79.3895 11.3913V6.44298C79.3895 4.90171 78.5296 3.97695 77.0695 3.97695C76.0149 3.97695 75.1226 4.59345 74.7819 5.53444C74.5061 4.52856 73.7273 3.97695 72.5592 3.97695C71.5371 3.97695 70.7421 4.51233 70.4014 5.42087V3.99317L67.0106 4.93415V5.06395H67.0269C67.7569 5.12884 67.9679 5.38842 67.9679 6.23206V12.5756H71.1315V12.4458H71.1153C70.5799 12.316 70.4014 12.0889 70.4014 11.4886V5.81025C70.5475 5.46954 70.8233 5.08017 71.3911 5.08017C72.0887 5.08017 72.4619 5.56689 72.4619 6.5241V12.5594H75.6255V12.4296H75.6093C75.0739 12.2998 74.8955 12.0727 74.8955 11.4724V6.42675C74.8955 6.23207 74.8792 6.0536 74.8468 5.85892C74.9928 5.50199 75.301 5.06395 75.8851 5.06395C76.599 5.06395 76.9559 5.53444 76.9559 6.50787V12.5432H80.3467V12.5756Z" fill="#758091"/>
</svg>
