<svg viewBox="0 0 79 12" xmlns="http://www.w3.org/2000/svg">
  <path d="M10.931 6.19048C10.931 3.17897 13.408 0.741087 16.5108 0.741087C19.6396 0.741087 22.1166 3.17897 22.1166 6.19048C22.1166 9.17591 19.6396 11.6659 16.5108 11.6659C13.408 11.6529 10.931 9.17591 10.931 6.19048ZM19.431 6.19048C19.431 4.67821 18.1274 3.36149 16.5108 3.36149C14.9203 3.36149 13.6036 4.69124 13.6036 6.19048C13.6036 7.71578 14.9073 9.04554 16.5108 9.04554C18.1274 9.04554 19.431 7.71578 19.431 6.19048ZM67.211 6.28173C67.211 2.98342 69.8965 0.741087 72.3344 0.741087C73.9901 0.741087 74.9418 1.24952 75.5936 2.22728L75.8544 0.93664H78.3444V11.4573H75.8544L75.5284 10.3753C74.7984 11.1705 73.8858 11.6659 72.3344 11.6659C69.9356 11.6529 67.211 9.55397 67.211 6.28173ZM75.724 6.25566C75.724 4.66517 74.4073 3.36149 72.8168 3.36149C71.2132 3.36149 69.9096 4.6782 69.9096 6.26869V6.28173C69.9096 7.74185 71.2132 9.04554 72.8168 9.04554C74.4073 9.04554 75.724 7.74186 75.724 6.25566ZM64.1473 2.1621V0.949677H61.4226V11.4704H64.1473V5.79937C64.1473 4.09155 64.9947 3.20504 66.4548 3.20504C66.5461 3.20504 66.6373 3.21808 66.7286 3.21808L67.237 0.675903C65.816 0.675903 64.7861 1.1713 64.1473 2.1621ZM36.783 2.1621V0.949677H34.0583L34.0844 11.4704H36.8091L36.7961 5.79937C36.7961 4.09155 37.6304 3.20504 39.0905 3.20504C39.1818 3.20504 39.2731 3.20504 39.3643 3.21808L39.8728 0.675903C38.4387 0.675903 37.4088 1.1713 36.783 2.1621ZM23.0553 7.38986V0.949677H25.78V7.06394C25.78 8.41977 26.5361 9.21501 27.8398 9.21501C29.2999 9.21501 30.1473 8.32851 30.1473 6.62069V0.949677H32.872V11.4704H30.1473V10.258C29.5085 11.2488 28.4656 11.7442 27.0185 11.7442C24.5806 11.7311 23.0553 9.95811 23.0553 7.38986ZM49.5852 6.20351C49.5852 3.25719 51.6971 0.741087 55.0476 0.741087C58.1504 0.741087 60.3405 3.23112 60.3275 6.1644C60.3275 6.45121 60.3014 6.73802 60.2623 7.02483L52.2447 7.01179C52.5576 8.27636 53.5875 9.18894 55.1649 9.18894C56.1166 9.18894 57.1335 8.83695 57.7593 8.0417L59.6235 9.5279C58.6718 10.8837 56.9771 11.6659 55.191 11.6659C52.01 11.6529 49.5721 9.2802 49.5852 6.20351ZM57.5767 5.10842C57.4203 4.0394 56.3122 3.21808 55.0085 3.21808C53.7439 3.21808 52.7271 3.96118 52.3229 5.09538L57.5767 5.10842ZM39.8858 9.16287L42.3106 7.8983C42.7148 8.77176 43.51 9.2802 44.6442 9.2802C45.6872 9.2802 46.0913 8.94124 46.0913 8.48495C46.0913 6.79017 40.3551 7.82008 40.3551 3.94814C40.3551 1.81011 42.2194 0.675903 44.5399 0.675903C46.2999 0.675903 47.8513 1.45811 48.6987 2.9052L46.2999 4.16977C45.9479 3.45275 45.283 3.06164 44.4356 3.06164C43.6143 3.06164 43.2102 3.34845 43.2102 3.84385C43.2102 5.48649 48.9464 4.44354 48.9464 8.38066C48.9464 10.4274 47.2777 11.6659 44.5921 11.6659C42.2846 11.6529 40.681 10.8968 39.8858 9.16287ZM0.110489 6.19048C0.110489 3.1529 2.58748 0.715016 5.69024 0.715016C7.58058 0.701979 9.35359 1.64063 10.4096 3.21808L8.08902 4.56087C7.54147 3.77867 6.65497 3.32238 5.70328 3.32238C4.11279 3.32238 2.79607 4.65213 2.79607 6.17744C2.79607 7.70275 4.09975 9.0325 5.70328 9.0325C6.70711 9.0325 7.63273 8.52406 8.16724 7.67667L10.4748 9.04554C9.43181 10.6621 7.63273 11.6529 5.71632 11.6399C2.58748 11.6529 0.110489 9.17591 0.110489 6.19048Z" fill="#758091"/>
</svg>
