<svg viewBox="0 0 78 17" xmlns="http://www.w3.org/2000/svg">
<path d="M10.1972 14.2305C10.5356 14.2305 10.8211 14.5052 10.8211 14.8538C10.8211 15.1919 10.5461 15.4772 10.1972 15.4772C9.85879 15.4772 9.57327 15.2025 9.57327 14.8538C9.56269 14.5158 9.83764 14.2411 10.176 14.2305C10.1866 14.2305 10.1866 14.2305 10.1972 14.2305ZM20.3278 10.2899C19.9894 10.2899 19.7144 10.0258 19.7038 9.68773C19.7038 9.67716 19.7038 9.67716 19.7038 9.6666C19.725 9.33909 19.9894 9.07498 20.3278 9.04328C20.6661 9.04328 20.9411 9.3074 20.9411 9.64547C20.9411 9.65603 20.9411 9.65603 20.9411 9.6666C20.9305 10.0047 20.6661 10.2688 20.3278 10.2899ZM20.3278 7.65931C19.228 7.68044 18.3397 8.56787 18.3186 9.6666C18.3186 9.89902 18.3186 10.1314 18.3926 10.2899L11.8151 13.7657C11.1912 12.8677 9.94338 12.6458 9.04453 13.2691C8.78017 13.4593 8.5581 13.7023 8.41005 13.9981L2.53051 10.9027C1.91718 10.5963 1.45189 9.50813 1.52591 8.57844C1.52591 8.11359 1.75856 7.73326 1.9912 7.5748C2.1604 7.50084 2.36131 7.50084 2.53051 7.5748H2.60453C4.14844 8.41997 9.34062 11.0506 9.48867 11.209C9.79534 11.3675 10.028 11.4415 10.5673 11.1351L21.1737 5.65203C21.3535 5.56751 21.4804 5.38791 21.4804 5.18718C21.4804 4.88081 21.1737 4.72233 21.1737 4.72233C20.5498 4.41596 19.6298 4.02507 18.7733 3.56022C16.8381 2.63053 14.6703 1.62689 13.6657 1.16204C13.1687 0.866233 12.5448 0.866233 12.0372 1.16204L11.8045 1.236C7.4689 3.40175 1.67396 6.26478 1.35672 6.41268C0.732809 6.80357 0.426142 7.49028 0.352119 8.34601C0.278096 9.74055 0.965452 11.209 2.05465 11.7478L8.32545 14.9912C8.46292 15.9526 9.28775 16.6815 10.2606 16.6921C11.3392 16.6921 12.2698 15.8469 12.2698 14.7588L19.154 11.0506C19.5452 11.3569 19.9259 11.4415 20.3912 11.4415C21.491 11.4203 22.3792 10.5329 22.4004 9.43417C22.2629 8.50448 21.4169 7.65931 20.3278 7.65931Z" fill="#758091"/>
<path d="M35.4178 12.9099C34.9631 13.3641 34.4026 13.7128 33.7893 13.9135C33.0385 14.167 32.256 14.2938 31.4629 14.2938C30.1516 14.2938 29.0624 13.9135 28.2905 13.0578C27.5185 12.2865 27.0532 11.1244 27.0532 9.72989V8.88471C27.0532 7.88107 27.2118 7.02533 27.5925 6.33863C27.9732 5.56741 28.4385 5.02861 29.0624 4.63772C29.7392 4.2257 30.5112 4.0144 31.3043 4.0144C32.5415 4.0144 33.5461 4.32078 34.244 4.85958C34.942 5.39838 35.3226 6.25411 35.4813 7.40566H33.1654C33.0914 6.86686 32.9328 6.47597 32.6261 6.24355C32.2877 5.99 31.8859 5.85266 31.4629 5.85266C30.839 5.85266 30.3843 6.08508 30.067 6.62388C29.7498 7.16267 29.6017 7.85994 29.5277 8.78963V9.41295C29.5277 10.4166 29.6863 11.1878 30.067 11.6527C30.3737 12.1175 30.913 12.4239 31.6955 12.4239C32.3194 12.4239 32.7741 12.2654 33.0914 12.033V10.4905H31.3994V8.86358H35.5024V12.8782L35.4178 12.9099Z" fill="#758091"/>
<path d="M36.8136 14.1566H39.14V6.74022H36.8136V14.1566ZM36.729 4.79632C36.7396 4.46882 36.8771 4.17301 37.1203 3.95115C37.3529 3.71873 37.6596 3.64478 38.0508 3.64478C38.4421 3.64478 38.7488 3.71873 38.9814 3.95115C39.2141 4.18357 39.3727 4.416 39.3727 4.79632C39.3621 5.12383 39.2246 5.41964 38.9814 5.6415C38.7488 5.87392 38.4421 5.94787 38.0508 5.94787C37.6596 5.94787 37.3529 5.87392 37.1203 5.6415C36.8136 5.41964 36.729 5.18722 36.729 4.79632Z" fill="#758091"/>
<path d="M43.3064 4.87036V6.72974H44.5437V8.3567H43.3064V11.7585C43.3064 11.9698 43.3593 12.1917 43.465 12.3818C43.5391 12.4558 43.7717 12.5403 44.0889 12.5403C44.3216 12.5403 44.4802 12.5403 44.6283 12.4664V14.0933C44.2053 14.2518 43.7611 14.3257 43.317 14.3257C42.545 14.3257 41.9211 14.1673 41.5404 13.7869C41.1598 13.4066 41.0011 12.8572 41.0011 12.086V8.37783H40.0706V6.75087H41.0011V4.89149H43.3064V4.87036Z" fill="#758091"/>
<path d="M47.9487 9.89914V12.2973H49.4926C49.9579 12.2973 50.2646 12.2234 50.4972 11.9909C50.7299 11.7585 50.8885 11.5261 50.8885 11.1458C50.8885 10.3006 50.4972 9.90971 49.6512 9.90971L47.9487 9.89914ZM47.9487 8.3567H49.186C49.7253 8.3567 50.1165 8.28275 50.3492 8.05033C50.5818 7.89186 50.6558 7.58548 50.6558 7.20516C50.6558 6.85652 50.5184 6.51845 50.2646 6.27546C49.9156 6.06417 49.5138 5.94796 49.1014 5.96909H47.9382L47.9487 8.3567ZM45.5588 14.1461V4.1731H49.1965C50.5078 4.1731 51.4384 4.40552 52.1363 4.87036C52.8342 5.33521 53.1409 6.03248 53.1409 6.96217C53.1409 7.42701 53.0034 7.88129 52.7496 8.27218C52.517 8.66308 52.1363 8.8955 51.671 9.04341C52.2103 9.20188 52.6016 9.4343 52.9083 9.81463C53.2149 10.195 53.2995 10.6598 53.2995 11.2092C53.2995 12.2128 52.9929 12.9101 52.369 13.4489C51.7556 13.9137 50.825 14.2201 49.5878 14.2201L45.5588 14.1461Z" fill="#758091"/>
<path d="M56.5462 10.5224C56.5462 11.2197 56.6202 11.6845 56.8528 12.0648C57.0643 12.3607 57.4133 12.5403 57.7834 12.5297C58.6294 12.5297 59.0207 11.9064 59.0207 10.5964V10.3639C59.0207 9.05392 58.5554 8.35665 57.7094 8.35665C56.9374 8.35665 56.5462 8.89545 56.4721 10.0576L56.5462 10.5224ZM54.2197 10.3639C54.2092 9.66667 54.3678 8.97997 54.685 8.35665C54.9917 7.81785 55.383 7.35301 55.9223 7.04663C56.4616 6.74026 57.0855 6.58179 57.8574 6.58179C58.9361 6.58179 59.8666 6.88816 60.4905 7.58543C61.1144 8.2827 61.4211 9.21239 61.4211 10.3639V10.5224C61.4211 11.6845 61.1145 12.6142 60.4165 13.3009C59.7926 13.9982 58.8726 14.3046 57.7834 14.3046C56.6942 14.3046 55.8482 13.9982 55.2243 13.3749C54.6004 12.7516 54.2197 11.9064 54.2197 10.8288V10.3639Z" fill="#758091"/>
<path d="M64.5088 10.5224C64.5088 11.2197 64.5828 11.6845 64.8155 12.0648C65.027 12.3607 65.3759 12.5403 65.7461 12.5297C66.592 12.5297 66.9833 11.9064 66.9833 10.5964V10.3639C66.9833 9.05392 66.518 8.35665 65.672 8.35665C64.9001 8.35665 64.5088 8.89545 64.4348 10.0576L64.5088 10.5224ZM62.1824 10.3639C62.1718 9.66667 62.3304 8.97997 62.6477 8.35665C62.9543 7.81785 63.3456 7.35301 63.8849 7.04663C64.4242 6.74026 65.0481 6.58179 65.8201 6.58179C66.8987 6.58179 67.8293 6.88816 68.4532 7.58543C69.0771 8.2827 69.3838 9.21239 69.3838 10.3639V10.5224C69.3838 11.6845 69.0771 12.6142 68.3792 13.3009C67.7658 13.9982 66.8353 14.3046 65.7461 14.3046C64.6569 14.3046 63.8109 13.9982 63.1976 13.3749C62.5842 12.7516 62.193 11.9064 62.193 10.8288V10.3639H62.1824Z" fill="#758091"/>
<path d="M73.4128 11.4415L72.7149 12.0648V14.1566H70.3884V3.64478H72.7149V9.21235L72.9475 8.90598L74.7241 6.74022H77.5052L74.8721 9.8251L77.6533 14.1566H75.0307L73.4128 11.4415Z" fill="#758091"/>
</svg>
