<svg width="24" height="24" viewBox="0 0 24 24" fill="none" xmlns="http://www.w3.org/2000/svg">
<path fill-rule="evenodd" clip-rule="evenodd" d="M4 4.75C3.30965 4.75 2.75 5.30964 2.75 6V6.58797L11.3682 12.0644C11.3688 12.0648 11.3693 12.0652 11.3699 12.0655C11.5589 12.1835 11.7772 12.246 12 12.246C12.2228 12.246 12.4411 12.1835 12.6301 12.0655C12.6307 12.0652 12.6312 12.0648 12.6318 12.0644L21.25 6.58797V6C21.25 5.30964 20.6904 4.75 20 4.75H4ZM22.75 6.98734V6C22.75 4.48122 21.5188 3.25 20 3.25H4C2.48122 3.25 1.25 4.48122 1.25 6V6.98735C1.24988 6.99531 1.24988 7.00328 1.25 7.01124V18C1.25 19.5188 2.48122 20.75 4 20.75H20C21.5188 20.75 22.75 19.5188 22.75 18V7.01124C22.7501 7.00328 22.7501 6.99532 22.75 6.98734ZM21.25 8.3652L13.4282 13.3356C13.0001 13.6038 12.5052 13.746 12 13.746C11.4948 13.746 10.9999 13.6038 10.5718 13.3356L10.5677 13.333L2.75 8.3652V18C2.75 18.6904 3.30965 19.25 4 19.25H20C20.6904 19.25 21.25 18.6904 21.25 18V8.3652Z" fill="#36395A"/>
</svg>
